<svg width="100%" height="100%" viewBox="0 0 40 40" fill="none" xmlns="http://www.w3.org/2000/svg">
<path d="M16.7501 2.49259L15.9518 1.05375L12.0097 2.9646L12.7727 4.40669L13.511 4.05187C13.5498 4.01606 13.5922 3.98676 13.6417 3.96398L14.6802 3.4887L16.7501 2.49259ZM15.0087 9.82349C13.6346 10.1751 12.3277 10.7057 11.1337 11.386C8.82711 12.6979 6.95143 14.5762 5.84935 16.8289C4.75079 19.0783 4.42581 21.7053 5.21706 24.5309C5.57029 25.7939 6.14959 27.1026 6.98323 28.434C8.44915 27.1449 10.1199 26.3278 11.8437 25.9274C11.0666 24.5895 10.6569 23.3167 10.5544 22.1448C10.4414 20.8036 10.731 19.5926 11.3421 18.5574C11.9497 17.5255 12.8752 16.6726 14.0232 16.0411C15.0935 15.4551 16.3651 15.0612 17.7604 14.9017L15.0087 9.82349ZM18.2267 15.7514C16.8314 15.8686 15.5668 16.2364 14.5212 16.8061C13.5216 17.353 12.7233 18.0919 12.197 18.9806C11.6742 19.8693 11.4234 20.9143 11.5223 22.0764C11.6177 23.1962 12.0345 24.4267 12.8398 25.7418C13.1507 25.6995 13.458 25.6702 13.7689 25.6507C15.256 25.5693 16.736 25.7777 18.1172 26.2464C18.6541 26.4287 19.1769 26.6501 19.6785 26.9105H33.3239C33.5923 26.9105 33.8078 27.1091 33.8078 27.3565V31.061C33.8078 31.3084 33.5923 31.507 33.3239 31.507H24.2634C24.7792 32.5519 25.1289 33.714 25.2631 34.9836H34.8181C34.9382 34.9836 35.0583 35.0227 35.1501 35.1073L39.8234 39.209C39.9329 39.2903 40 39.414 40 39.554C40 39.8014 39.7845 40 39.5161 40H0.483722V39.9967C0.37422 39.9967 0.26825 39.9642 0.176409 39.8958C-0.0284667 39.7396 -0.0602578 39.4596 0.109294 39.2708L3.66989 35.2701C3.67342 34.0558 3.93128 32.9295 4.40815 31.8846C4.85676 30.8917 5.49964 29.9705 6.29795 29.1078C5.34069 27.6267 4.68014 26.165 4.28452 24.749C3.43323 21.7118 3.78646 18.883 4.96979 16.461C6.14959 14.0423 8.1595 12.0338 10.6286 10.6275C11.8437 9.93417 13.1754 9.39054 14.5707 9.01292L14.2669 8.45627C14.2598 8.44325 14.2492 8.43023 14.2422 8.41395C14.1256 8.19259 14.2281 7.92566 14.4718 7.81823L15.0582 7.56107L13.6523 4.98288L12.8116 5.38654C12.7975 5.3963 12.7798 5.40281 12.7657 5.40932C12.5255 5.51675 12.2358 5.4256 12.1192 5.20424L10.9359 2.9646C10.8229 2.74975 10.9147 2.48933 11.1443 2.3754L15.913 0.0641419C15.9236 0.0576313 15.9306 0.054376 15.9412 0.0478654C16.1779 -0.0628143 16.4711 0.0250784 16.5912 0.243183L17.8275 2.47631C17.9476 2.69441 17.8558 2.95809 17.6191 3.07203L16.9833 3.37802L18.5022 6.0441L19.1804 5.74462C19.4135 5.64045 19.6961 5.72834 19.8162 5.93993L25.7682 16.4187L26.3475 16.1355C26.5842 16.0216 26.8774 16.1029 27.001 16.321L28.3292 18.6453L28.3327 18.6486C28.4563 18.8667 28.3609 19.1369 28.1243 19.2475L21.0773 22.607L21.0631 22.6135C20.8229 22.7209 20.5333 22.6265 20.4167 22.4052L19.2157 20.12C19.0991 19.9051 19.191 19.6414 19.4241 19.5275L20.0953 19.1987L18.2267 15.7514ZM27.2483 18.6714L26.3722 17.1414L21.2468 19.6447L20.9642 19.7814L20.9536 19.7879L20.9395 19.7944L20.286 20.1135L21.0702 21.6076L27.2483 18.6714ZM20.9501 18.782L21.2786 18.6225L24.9134 16.8354L19.1804 6.74399L16.2909 8.01355L15.9271 8.17957C15.9024 8.18934 15.8812 8.1991 15.8565 8.20561L15.3337 8.43674L20.9501 18.782ZM15.9306 7.1802L15.9872 7.15416L17.6191 6.4087L16.139 3.81098L15.0511 4.30904L14.5106 4.56946L15.9306 7.1802ZM21.1196 27.8024C21.3775 27.9912 21.6283 28.1898 21.8685 28.4014C22.5962 29.0394 23.2355 29.7817 23.7618 30.615H32.8364V27.8024H21.1196ZM7.2976 29.4008C7.28347 29.4203 7.26935 29.4398 7.25168 29.4561C6.41452 30.3188 5.74691 31.2368 5.2983 32.2296C4.90974 33.089 4.68014 34.0038 4.64129 34.9869H24.2917C24.0126 32.5193 22.8505 30.4978 21.2044 29.0492C20.2118 28.1768 19.0426 27.5127 17.7851 27.0863C16.5276 26.6598 15.1783 26.4678 13.8289 26.5426C11.5188 26.6696 9.20154 27.5746 7.2976 29.4008ZM24.9028 35.8788C24.8851 35.8821 24.8639 35.8853 24.8463 35.8853C24.8074 35.8886 24.7686 35.8853 24.7332 35.8788H4.37989L1.50457 39.1113H38.308L34.6238 35.8788H24.9028Z" fill="#FEFEFE"/>
</svg>
