<svg width="100%" height="100%" viewBox="0 0 40 25" fill="none" xmlns="http://www.w3.org/2000/svg">
<path d="M1.81818 14.5833H33.7924L27.8053 21.4436C27.0952 22.2571 27.0952 23.5762 27.8053 24.3899C28.1603 24.7965 28.6256 25 29.091 25C29.5563 25 30.0216 24.7965 30.3765 24.3897L39.4675 13.973C40.1775 13.1596 40.1775 11.8404 39.4675 11.0268L30.3765 0.610105C29.6666 -0.203368 28.5153 -0.203368 27.8053 0.610105C27.0952 1.42358 27.0952 2.74275 27.8053 3.55636L33.7924 10.4166H1.81818C0.814062 10.4166 0 11.3494 0 12.5C0 13.6505 0.814062 14.5833 1.81818 14.5833Z" fill="#FEFEFE"/>
</svg>
