<svg width="100%" height="100%" viewBox="0 0 40 42" fill="none" xmlns="http://www.w3.org/2000/svg">
  <path d="M23.5348 21L39.2675 4.48246C40.2441 3.45703 40.2441 1.79448 39.2675 0.769135C38.2909 -0.256297 36.7076 -0.256297 35.731 0.769135L20 17.2884L4.26895 0.769135C3.29235 -0.256297 1.70897 -0.256297 0.732451 0.769135C-0.244072 1.79457 -0.24415 3.45711 0.732451 4.48246L16.4651 21L0.732451 37.5177C-0.24415 38.5431 -0.24415 40.2056 0.732451 41.231C1.70905 42.2563 3.29243 42.2564 4.26895 41.231L20 24.7116L35.731 41.231C36.7076 42.2564 38.2909 42.2564 39.2675 41.231C40.2441 40.2056 40.2441 38.543 39.2675 37.5177L23.5348 21Z" fill="#E1C91F"/>
</svg>
