<svg width="100%" height="100%" viewBox="0 0 40 40" fill="none" xmlns="http://www.w3.org/2000/svg">
<path d="M24.8217 40H14.8217V34.145C13.0838 33.5301 11.4741 32.6001 10.0733 31.4017L5 34.3333L0 25.6667L5.07167 22.7417C4.73852 20.9291 4.73852 19.0709 5.07167 17.2583L0 14.3333L5 5.66667L10.0733 8.59833C11.4741 7.39988 13.0838 6.46989 14.8217 5.855V0H24.8217V5.855C26.5596 6.46989 28.1693 7.39988 29.57 8.59833L34.6433 5.66667L39.6433 14.3333L34.5717 17.2583C34.9048 19.0709 34.9048 20.9291 34.5717 22.7417L39.6433 25.6667L34.6433 34.3333L29.57 31.4033C28.1691 32.6012 26.5595 33.5306 24.8217 34.145V40ZM18.155 36.6667H21.4883V31.6217L22.74 31.2983C24.7934 30.7664 26.6623 29.6835 28.145 28.1667L29.05 27.245L33.4217 29.77L35.0883 26.8833L30.7217 24.3617L31.065 23.1183C31.6294 21.0732 31.6294 18.9134 31.065 16.8683L30.7217 15.625L35.0883 13.1033L33.4217 10.2167L29.05 12.7483L28.145 11.8333C26.6615 10.3189 24.7926 9.23837 22.74 8.70833L21.4883 8.37833V3.33333H18.155V8.37833L16.9033 8.70167C14.85 9.23359 12.981 10.3165 11.4983 11.8333L10.5933 12.755L6.22167 10.2233L4.555 13.11L8.92167 15.6317L8.57833 16.875C8.01393 18.9201 8.01393 21.0799 8.57833 23.125L8.92167 24.3683L4.555 26.89L6.22167 29.7767L10.5933 27.2517L11.4983 28.1733C12.9818 29.6878 14.8507 30.7683 16.9033 31.2983L18.155 31.6217V36.6667ZM19.8217 26.6667C18.5031 26.6667 17.2142 26.2757 16.1179 25.5431C15.0215 24.8106 14.1671 23.7694 13.6625 22.5512C13.1579 21.333 13.0259 19.9926 13.2831 18.6994C13.5403 17.4062 14.1753 16.2183 15.1076 15.286C16.04 14.3536 17.2279 13.7187 18.5211 13.4614C19.8143 13.2042 21.1547 13.3362 22.3729 13.8408C23.5911 14.3454 24.6323 15.1999 25.3648 16.2962C26.0973 17.3925 26.4883 18.6815 26.4883 20C26.4883 21.7681 25.786 23.4638 24.5357 24.714C23.2855 25.9643 21.5898 26.6667 19.8217 26.6667ZM19.8217 16.6667C19.1624 16.6667 18.5179 16.8622 17.9698 17.2284C17.4216 17.5947 16.9944 18.1153 16.7421 18.7244C16.4898 19.3335 16.4238 20.0037 16.5524 20.6503C16.681 21.2969 16.9985 21.8908 17.4646 22.357C17.9308 22.8232 18.5248 23.1407 19.1714 23.2693C19.818 23.3979 20.4882 23.3319 21.0973 23.0796C21.7064 22.8273 22.227 22.4001 22.5932 21.8519C22.9595 21.3037 23.155 20.6593 23.155 20C23.155 19.1159 22.8038 18.2681 22.1787 17.643C21.5536 17.0179 20.7057 16.6667 19.8217 16.6667Z" fill="#FEFEFE"/>
</svg>
