<svg width="100%" height="100%" viewBox="0 0 45 40" fill="none" xmlns="http://www.w3.org/2000/svg">
<path d="M42.1875 40C42.1875 40 45 40 45 36.6667C45 33.3333 42.1875 23.3333 30.9375 23.3333C19.6875 23.3333 16.875 33.3333 16.875 36.6667C16.875 40 19.6875 40 19.6875 40H42.1875ZM19.7494 36.6667C19.7286 36.6633 19.708 36.6588 19.6875 36.6533C19.6903 35.7733 20.1572 33.22 21.825 30.92C23.3775 28.7633 26.1056 26.6667 30.9375 26.6667C35.7666 26.6667 38.4947 28.7667 40.05 30.92C41.7178 33.22 42.1819 35.7767 42.1875 36.6533L42.165 36.66C42.1519 36.6626 42.1388 36.6648 42.1256 36.6667H19.7494ZM30.9375 16.6667C32.4293 16.6667 33.8601 15.9643 34.915 14.714C35.9699 13.4638 36.5625 11.7681 36.5625 10C36.5625 8.23189 35.9699 6.5362 34.915 5.28595C33.8601 4.03571 32.4293 3.33333 30.9375 3.33333C29.4457 3.33333 28.0149 4.03571 26.96 5.28595C25.9051 6.5362 25.3125 8.23189 25.3125 10C25.3125 11.7681 25.9051 13.4638 26.96 14.714C28.0149 15.9643 29.4457 16.6667 30.9375 16.6667ZM39.375 10C39.375 11.3132 39.1568 12.6136 38.7327 13.8268C38.3087 15.0401 37.6872 16.1425 36.9037 17.0711C36.1202 17.9997 35.1901 18.7362 34.1664 19.2388C33.1427 19.7413 32.0455 20 30.9375 20C29.8295 20 28.7323 19.7413 27.7086 19.2388C26.6849 18.7362 25.7548 17.9997 24.9713 17.0711C24.1878 16.1425 23.5663 15.0401 23.1423 13.8268C22.7182 12.6136 22.5 11.3132 22.5 10C22.5 7.34784 23.3889 4.8043 24.9713 2.92893C26.5536 1.05357 28.6997 0 30.9375 0C33.1753 0 35.3214 1.05357 36.9037 2.92893C38.4861 4.8043 39.375 7.34784 39.375 10ZM19.5075 24.2667C18.3824 23.8468 17.2227 23.5708 16.0481 23.4433C15.3881 23.3689 14.7255 23.3322 14.0625 23.3333C2.8125 23.3333 0 33.3333 0 36.6667C0 38.89 0.936563 40 2.8125 40H14.67C14.2531 38.9594 14.0451 37.8185 14.0625 36.6667C14.0625 33.3 15.1228 29.86 17.1281 26.9867C17.8116 26.0067 18.6075 25.09 19.5075 24.2667ZM13.8375 26.6667C12.1729 29.6309 11.2737 33.1061 11.25 36.6667H2.8125C2.8125 35.8 3.27375 33.2333 4.95 30.92C6.48281 28.8 9.14625 26.7333 13.8375 26.67V26.6667ZM4.21875 11.6667C4.21875 9.0145 5.1077 6.47096 6.69004 4.5956C8.27238 2.72024 10.4185 1.66667 12.6562 1.66667C14.894 1.66667 17.0401 2.72024 18.6225 4.5956C20.2048 6.47096 21.0938 9.0145 21.0938 11.6667C21.0938 14.3188 20.2048 16.8624 18.6225 18.7377C17.0401 20.6131 14.894 21.6667 12.6562 21.6667C10.4185 21.6667 8.27238 20.6131 6.69004 18.7377C5.1077 16.8624 4.21875 14.3188 4.21875 11.6667ZM12.6562 5C11.1644 5 9.73367 5.70238 8.67877 6.95262C7.62388 8.20286 7.03125 9.89856 7.03125 11.6667C7.03125 13.4348 7.62388 15.1305 8.67877 16.3807C9.73367 17.631 11.1644 18.3333 12.6562 18.3333C14.1481 18.3333 15.5788 17.631 16.6337 16.3807C17.6886 15.1305 18.2812 13.4348 18.2812 11.6667C18.2812 9.89856 17.6886 8.20286 16.6337 6.95262C15.5788 5.70238 14.1481 5 12.6562 5Z" fill="#FEFEFE"/>
</svg>
