<svg width="100%" height="100%" viewBox="0 0 30 40" fill="none" xmlns="http://www.w3.org/2000/svg">
<path d="M7.60517 14.0483C5.92616 15.9642 7.28674 18.9656 9.83428 18.9656L16.4879 18.9656C17.0556 18.9656 17.5159 19.4289 17.5159 20.0002C17.5159 20.5718 17.0556 21.035 16.4879 21.035L9.83404 21.035C7.28669 21.035 5.92611 24.0361 7.60484 25.952C7.97919 26.3785 7.93966 27.0298 7.51632 27.4068C7.09265 27.7841 6.44554 27.7444 6.07087 27.3179L0.257057 20.6828C-0.0908298 20.2869 -0.0816841 19.6968 0.260651 19.3123L6.0712 12.6821C6.44554 12.2553 7.09297 12.2156 7.51664 12.5932C7.93999 12.9702 7.97952 13.6219 7.60517 14.0483ZM6.85941 7.56842C6.85941 8.14004 6.39458 8.60326 5.8213 8.60326C5.2477 8.60326 4.78287 8.14004 4.78287 7.56842V2.93231C4.78287 2.12664 5.11507 1.39291 5.64785 0.861984C6.18128 0.33073 6.91756 0 7.72538 0H27.0572C27.8656 0 28.6022 0.330078 29.1357 0.861332C29.6681 1.39194 30 2.12469 30 2.93231L30 37.0674C30 37.8747 29.6691 38.6081 29.1363 39.1393C28.6035 39.6702 27.8676 40 27.0572 40H7.7257C6.91592 40 6.1803 39.6693 5.64752 39.1387C5.11409 38.6071 4.78319 37.8727 4.78319 37.0674V32.4316C4.78319 31.8603 5.24802 31.3971 5.82163 31.3971C6.39491 31.3971 6.85974 31.8603 6.85974 32.4316V37.0674C6.85974 37.3024 6.95806 37.5182 7.11617 37.6758C7.27361 37.8327 7.48986 37.9306 7.72603 37.9306H27.0572C27.2943 37.9306 27.5109 37.833 27.668 37.6761C27.8258 37.5195 27.9235 37.3037 27.9235 37.0674L27.9235 2.93231C27.9235 2.69664 27.8251 2.48146 27.6677 2.32456C27.5096 2.16701 27.293 2.06902 27.0572 2.06902H7.7257C7.49051 2.06902 7.27459 2.16734 7.11649 2.32489C6.95806 2.48244 6.85941 2.69794 6.85941 2.93231V7.56842Z" fill="#FEFEFE"/>
</svg>
