<svg width="100%" height="100%" viewBox="0 0 37 30" fill="none" xmlns="http://www.w3.org/2000/svg">
<path d="M23.2216 11.4175C22.8688 11.0905 22.3383 10.9928 21.8775 11.1696C21.4167 11.3466 21.1162 11.7636 21.1162 12.2262V28.8565C21.1162 29.488 21.6685 30 22.3495 30H27.4744C28.1554 30 28.7077 29.488 28.7077 28.8565V16.9776C28.7077 16.6743 28.5778 16.3836 28.3465 16.169L23.2216 11.4175ZM26.241 27.713H23.5829V14.9868L26.241 17.4513V27.713Z" fill="#D80000"/>
<path d="M17.6968 11.1696C17.2358 10.9929 16.7054 11.0906 16.3527 11.4175L11.2279 16.1691C10.9966 16.3836 10.8667 16.6744 10.8667 16.9777V28.8565C10.8667 29.488 11.419 30 12.1 30H17.2249C17.9059 30 18.4582 29.488 18.4582 28.8565V12.226C18.4581 11.7636 18.1576 11.3466 17.6968 11.1696ZM15.9914 27.713H13.3332V17.4514L15.9914 14.9868V27.713Z" fill="#D80000"/>
<path d="M2.72209 11.4175C2.36928 11.0905 1.83882 10.9928 1.378 11.1696C0.917185 11.3466 0.616699 11.7636 0.616699 12.2262V28.8565C0.616699 29.488 1.16896 30 1.85003 30H6.97485C7.65593 30 8.20819 29.488 8.20819 28.8565V16.9777C8.20819 16.6744 8.07825 16.3837 7.84703 16.1691L2.72209 11.4175ZM5.74139 27.713H3.08324V14.9868L5.74139 17.4514V27.713Z" fill="#D80000"/>
<path d="M36.9862 12.8581L36.194 7.99354C36.0922 7.36925 35.4644 6.94004 34.7903 7.0336C34.1169 7.12785 33.6532 7.71056 33.755 8.33497L34.0477 10.1324L20.2501 0.239015C19.7894 -0.0913241 19.1428 -0.0779257 18.6984 0.271009L9.66268 7.36532L2.10545 0.358676C1.6237 -0.0877433 0.842966 -0.0877433 0.361218 0.358676C-0.120406 0.805211 -0.120406 1.5293 0.361218 1.97583L8.72124 9.72667C9.17495 10.1473 9.90075 10.1751 10.3905 9.79066L19.5306 2.61422L32.4355 11.8676L30.4233 11.8569C29.7413 11.8545 29.1868 12.3623 29.1829 12.9938C29.179 13.6254 29.7281 14.1402 30.4091 14.1439L35.7596 14.1723C35.7619 14.1723 35.7643 14.1723 35.7667 14.1723C36.1245 14.1723 36.4649 14.0281 36.6993 13.7771C36.9352 13.5243 37.04 13.1886 36.9862 12.8581Z" fill="#D80000"/>
</svg>
