<svg width="100%" height="100%" viewBox="0 0 423 255" fill="none" xmlns="http://www.w3.org/2000/svg">
<g clip-path="url(#clip0_4_212)">
<path d="M263.628 254.864C267.792 247.358 271.953 239.739 273.76 231.606C275.568 223.472 274.809 214.645 269.633 207.59C264.457 200.535 254.266 195.751 244.541 197.346C236.553 198.656 230.139 203.906 226.384 209.935C222.628 215.963 221.121 222.762 219.661 229.446C219.189 221.852 218.689 214.136 215.667 206.963C212.644 199.79 206.693 193.105 198.211 190.329C189.73 187.554 178.696 189.737 174.226 196.362C167.928 205.696 176.279 218.789 169.037 227.634C167.795 218.762 156.679 211.753 146.115 213.179C135.55 214.606 127.65 224.184 129.823 232.93C131.117 238.134 135.371 242.56 140.457 245.758C145.543 248.956 151.459 252.663 157.31 254.759L263.628 254.864Z" fill="#78A556"/>
<path d="M135.37 219.448C143.762 221.896 152.231 224.372 159.892 228.199C166.759 231.63 172.873 236.248 176.735 242.163C178.85 245.336 180.107 248.858 180.415 252.48C180.47 253.238 181.89 253.243 181.834 252.48C181.338 245.735 177.399 239.562 171.945 234.68C165.965 229.327 158.216 225.671 150.216 222.835C145.472 221.153 140.611 219.724 135.748 218.305C134.883 218.053 134.512 219.197 135.37 219.448Z" fill="white"/>
<path d="M183.775 191.506C188.931 198.675 193.059 206.325 196.076 214.298C199.099 222.268 201.003 230.505 201.75 238.842C202.163 243.509 202.208 248.193 201.885 252.865C201.832 253.627 203.252 253.624 203.305 252.865C203.877 244.442 203.267 235.992 201.485 227.687C199.706 219.383 196.782 211.279 192.771 203.536C190.52 199.187 187.924 194.968 185.001 190.908C184.902 190.778 184.747 190.685 184.568 190.648C184.39 190.612 184.201 190.635 184.042 190.712C183.883 190.79 183.766 190.916 183.716 191.064C183.666 191.212 183.687 191.37 183.775 191.506Z" fill="white"/>
<path d="M253.259 198.312C245.966 211.988 240.834 226.397 237.992 241.177C237.194 245.329 236.576 249.501 236.138 253.693C236.059 254.452 237.479 254.448 237.558 253.693C239.104 238.946 242.923 224.427 248.92 210.495C250.605 206.578 252.46 202.716 254.485 198.91C254.852 198.219 253.63 197.616 253.259 198.312Z" fill="white"/>
<path d="M50.1945 253.978C35.6498 250.819 22.7972 243.675 13.697 233.691C4.59689 223.708 -0.223805 211.464 0.00772286 198.921C0.0654042 195.796 0.45908 192.606 2.03302 189.77C3.60695 186.934 6.53052 184.481 10.1876 183.809C14.1787 183.076 18.3902 184.575 21.3645 186.914C24.3389 189.253 26.2891 192.339 28.0834 195.404C38.8908 213.863 47.102 233.669 50.1763 254.053L50.1945 253.978Z" fill="#78A556"/>
<path d="M8.37691 184.425L15.9514 198.789L23.5258 213.153C25.9247 217.702 28.3189 222.253 30.7984 226.772C33.2561 231.252 35.798 235.7 38.5097 240.076C41.2176 244.447 44.0956 248.746 47.2194 252.919C47.6085 253.439 48.0013 253.956 48.398 254.472C48.6725 254.829 49.3587 254.498 49.0822 254.138C45.8984 249.996 42.9647 245.723 40.2132 241.371C37.4588 237.015 34.8843 232.58 32.4049 228.11C29.9123 223.617 27.5156 219.087 25.1252 214.555C22.6091 209.784 20.0934 205.014 17.5782 200.243L10.0037 185.879L9.06114 184.091C8.85616 183.703 8.17316 184.039 8.37686 184.425L8.37691 184.425Z" fill="white"/>
<path d="M47.0349 254.078C38.4615 255.715 29.478 254.902 21.5243 251.769C13.5706 248.636 7.10736 243.366 3.17069 236.802C2.18985 235.166 1.36225 233.421 1.26214 231.594C1.16203 229.767 1.88653 227.835 3.56786 226.662C5.40278 225.382 8.07422 225.211 10.375 225.755C12.6758 226.3 14.6866 227.463 16.6094 228.649C28.1908 235.798 38.8602 244.23 47.0495 254.121L47.0349 254.078Z" fill="#78A556"/>
<path d="M2.82698 227.39L11.4055 233.14L19.9841 238.891C22.7009 240.713 25.416 242.536 28.165 244.323C30.8898 246.095 33.6483 247.832 36.4718 249.493C39.2912 251.152 42.1759 252.736 45.1477 254.198C45.5177 254.381 45.8891 254.561 46.2619 254.739C46.5199 254.863 46.769 254.536 46.5091 254.412C43.5163 252.978 40.6112 251.421 37.775 249.782C34.9358 248.14 32.1649 246.418 29.4319 244.656C26.6843 242.885 23.9747 241.073 21.2678 239.259C18.4184 237.349 15.5693 235.439 12.7204 233.529L4.14183 227.778L3.07428 227.062C2.84212 226.906 2.59626 227.235 2.82699 227.39H2.82698Z" fill="white"/>
<path d="M412.163 255H20.6667C20.5925 255 20.5191 254.988 20.4505 254.965C20.382 254.941 20.3197 254.906 20.2672 254.863C20.2147 254.819 20.173 254.767 20.1446 254.71C20.1162 254.653 20.1016 254.592 20.1016 254.53C20.1016 254.468 20.1162 254.407 20.1446 254.349C20.173 254.292 20.2147 254.24 20.2672 254.197C20.3197 254.153 20.382 254.118 20.4505 254.095C20.5191 254.071 20.5925 254.059 20.6667 254.059H412.163C412.312 254.059 412.456 254.109 412.561 254.197C412.667 254.285 412.726 254.405 412.726 254.53C412.726 254.654 412.667 254.774 412.561 254.862C412.456 254.95 412.312 255 412.163 255Z" fill="#3F3D56"/>
<path d="M401.878 207.883H375.373C375.373 208.145 375.248 208.396 375.026 208.581C374.805 208.766 374.504 208.87 374.19 208.87H348.172C347.805 209.101 347.47 209.366 347.174 209.66C346.284 210.546 345.798 211.665 345.801 212.82V213.61C345.802 214.919 346.425 216.175 347.534 217.1C348.644 218.026 350.148 218.547 351.716 218.547H401.878C403.447 218.546 404.951 218.025 406.06 217.1C407.169 216.174 407.792 214.919 407.794 213.61V212.82C407.791 211.511 407.168 210.256 406.059 209.331C404.95 208.405 403.446 207.885 401.878 207.883Z" fill="#3F3D56"/>
<path d="M380.108 218.351H373.956V254.688H380.108V218.351Z" fill="#3F3D56"/>
<path d="M397.617 254.508C397.617 255.063 388.295 254.723 376.795 254.723C365.295 254.723 355.973 255.063 355.973 254.508C355.973 253.953 365.295 249.554 376.795 249.554C388.295 249.554 397.617 253.953 397.617 254.508Z" fill="#3F3D56"/>
<path d="M400.719 209.02L399.687 203.633C399.557 202.954 399.108 202.346 398.441 201.942C397.774 201.539 396.942 201.373 396.129 201.48L385.486 202.898L367.257 205.327L361.328 206.117H374.19C374.504 206.117 374.805 206.222 375.026 206.407C375.248 206.592 375.373 206.843 375.373 207.105V207.883C375.373 208.145 375.248 208.396 375.026 208.581C374.805 208.766 374.504 208.87 374.19 208.87H341.457C341 209.049 340.605 209.32 340.307 209.66C340.055 209.937 339.874 210.253 339.773 210.589C339.672 210.926 339.654 211.277 339.72 211.619L340.014 213.152L340.369 215.012L340.752 217.011C340.882 217.688 341.329 218.294 341.994 218.697C342.66 219.1 343.489 219.266 344.301 219.159L352.758 218.034L377.148 214.783L398.14 211.987C398.952 211.876 399.678 211.502 400.161 210.947C400.645 210.391 400.845 209.699 400.719 209.02Z" fill="#FF8563"/>
<path d="M352.109 209.66C351.798 209.315 351.386 209.043 350.912 208.87H341.864C341.388 209.042 340.974 209.314 340.662 209.66C340.241 210.11 340.013 210.665 340.014 211.236V241.337C340.015 242.023 340.342 242.68 340.923 243.165C341.504 243.65 342.292 243.923 343.113 243.924H349.658C350.48 243.923 351.267 243.65 351.848 243.165C352.43 242.68 352.756 242.023 352.758 241.337V211.236C352.758 210.665 352.53 210.11 352.109 209.66Z" fill="#FF8563"/>
<path d="M371.805 158.393L371.744 158.326L367.683 154.151C367.467 153.927 367.206 153.736 366.912 153.586C366.756 153.498 366.587 153.426 366.41 153.373C366.151 153.286 365.879 153.23 365.601 153.207C365.416 153.19 365.229 153.188 365.043 153.199C365.039 153.199 365.036 153.201 365.033 153.203C364.406 153.242 363.808 153.44 363.32 153.772L354.987 159.412L344.278 166.664L328.297 177.486L327.133 178.276H347.354L348.522 177.486L352.389 174.867L352.663 174.685L371.336 162.042L371.351 162.035C371.735 161.776 372.039 161.444 372.236 161.067C372.366 160.82 372.449 160.557 372.482 160.289C372.525 159.951 372.487 159.61 372.371 159.284C372.255 158.959 372.062 158.656 371.805 158.393Z" fill="#FF8563"/>
<path d="M371.743 158.326C371.482 157.261 370.903 156.27 370.059 155.442C369.217 154.609 368.134 153.97 366.912 153.586C366.722 153.527 366.538 153.472 366.349 153.428C365.922 153.322 365.485 153.245 365.043 153.199C365.039 153.199 365.036 153.201 365.033 153.203C363.042 153.011 361.04 153.473 359.449 154.491L345.035 163.686C344.729 163.914 344.481 164.192 344.306 164.502C344.131 164.812 344.033 165.148 344.017 165.491C343.995 165.893 344.084 166.294 344.278 166.664C344.325 166.747 344.377 166.829 344.434 166.908C344.544 167.069 344.678 167.217 344.831 167.351L347.14 169.515L352.512 174.543L352.663 174.685L353.009 175.013C353.283 175.265 353.615 175.469 353.985 175.613C354.354 175.757 354.754 175.839 355.162 175.854C355.569 175.869 355.976 175.817 356.359 175.701C356.743 175.584 357.095 175.406 357.395 175.175L369.827 164.029C370.473 163.45 370.984 162.777 371.336 162.042C371.904 160.863 372.046 159.571 371.743 158.326Z" fill="#2F2E41"/>
<path d="M377.239 144.023C390.339 144.023 400.958 135.16 400.958 124.227C400.958 113.293 390.339 104.43 377.239 104.43C364.14 104.43 353.52 113.293 353.52 124.227C353.52 135.16 364.14 144.023 377.239 144.023Z" fill="#FF8563"/>
<path d="M386.134 206.295L385.486 202.898L385.103 200.904C384.972 200.226 384.525 199.619 383.858 199.216C383.192 198.813 382.361 198.647 381.549 198.755L364.309 201.05L359.634 201.674L358.687 201.8V206.117H374.19C374.504 206.117 374.805 206.222 375.027 206.407C375.248 206.592 375.373 206.843 375.373 207.105V207.883C375.373 208.145 375.248 208.396 375.027 208.581C374.805 208.766 374.504 208.87 374.19 208.87H325.131C325.131 208.878 325.135 208.886 325.135 208.894L325.429 210.426L326.167 214.281C326.298 214.959 326.744 215.565 327.41 215.968C328.075 216.371 328.905 216.537 329.716 216.43L338.173 215.304L340.014 215.06L340.369 215.012L352.758 213.361L361.186 212.235L374.559 210.454L374.758 210.426L383.555 209.257C384.367 209.149 385.095 208.776 385.578 208.221C386.061 207.666 386.261 206.973 386.134 206.295Z" fill="#FF8563"/>
<path d="M409.521 191.768C409.521 207.907 407.557 217.56 377.271 214.795C377.228 214.791 377.19 214.787 377.148 214.783C371.746 214.338 366.403 213.485 361.186 212.235C358.474 211.575 355.839 210.713 353.311 209.66C352.715 209.407 352.143 209.143 351.579 208.87H374.19C374.504 208.87 374.805 208.766 375.026 208.581C375.248 208.396 375.373 208.145 375.373 207.883V207.105C375.373 206.843 375.248 206.592 375.026 206.407C374.805 206.221 374.504 206.117 374.19 206.117H358.687V181.171C358.686 180.403 358.32 179.668 357.67 179.125C357.02 178.582 356.138 178.277 355.219 178.276H342.607C342.716 178.015 342.825 177.75 342.943 177.486C344.126 174.753 345.528 172.09 347.14 169.515C349.349 165.939 351.977 162.555 354.987 159.412C357.082 157.222 359.435 155.212 362.009 153.412C366.756 150.142 371.923 148.12 377.167 148.12C396.503 148.12 409.521 175.629 409.521 191.768Z" fill="#2F2E41"/>
<path d="M377.738 131.564L377.762 130.824C376.113 130.786 374.66 130.7 373.567 130.034C373.257 129.834 373.003 129.581 372.821 129.292C372.639 129.003 372.533 128.685 372.512 128.359C372.493 128.159 372.529 127.959 372.617 127.773C372.706 127.588 372.845 127.421 373.023 127.288C373.748 126.777 374.915 126.942 375.765 127.268L376.499 127.548L375.092 118.97L374.214 119.071L375.41 126.367C374.921 126.216 374.393 126.169 373.876 126.231C373.359 126.293 372.869 126.462 372.451 126.723C372.169 126.928 371.948 127.185 371.805 127.473C371.662 127.761 371.601 128.073 371.626 128.385C371.652 128.823 371.792 129.251 372.037 129.639C372.282 130.027 372.626 130.366 373.044 130.631C374.448 131.487 376.272 131.53 377.738 131.564Z" fill="#2F2E41"/>
<path d="M369.871 119.7H365.097V120.44H369.871V119.7Z" fill="#2F2E41"/>
<path d="M384.939 119.7H380.166V120.44H384.939V119.7Z" fill="#2F2E41"/>
<path d="M396.169 118.787C394.324 116.47 391.078 115.487 387.878 115.248C384.275 114.979 380.794 115.559 377.276 116.123C373.405 116.743 369.308 117.323 365.407 116.539C363.682 116.206 362.069 115.55 360.692 114.621C359.314 113.692 358.207 112.514 357.454 111.176C356.026 108.565 355.718 105.624 356.582 102.847C357.496 99.8924 359.765 97.293 362.516 95.3297C368.129 91.3226 375.726 89.5217 383.033 89.6914C390.312 89.8482 397.348 91.9129 403.143 95.593C408.947 99.4059 413.032 104.748 414.73 110.748C416.505 116.699 415.927 122.97 413.081 128.624C411.482 131.719 409.169 134.51 407.385 137.528C405.724 140.338 404.444 143.605 405.478 146.739C406.385 149.489 409.048 151.932 412.391 152.679C413.912 153.012 415.522 152.924 416.978 152.428C418.434 151.932 419.658 151.055 420.465 149.928C422.136 147.729 422.176 144.848 419.667 143.072C419.034 142.616 418.297 142.273 417.5 142.063C416.704 141.853 415.865 141.781 415.033 141.85C414.202 141.919 413.397 142.129 412.665 142.466C411.934 142.803 411.293 143.261 410.781 143.812C409.763 144.915 409.307 146.309 409.512 147.692C409.636 148.39 408.355 148.692 408.23 147.987C407.931 146.525 408.263 145.022 409.167 143.745C410.072 142.469 411.49 141.502 413.169 141.016C414.848 140.531 416.679 140.559 418.335 141.095C419.992 141.632 421.366 142.641 422.214 143.945C423.728 146.319 422.911 149.184 420.99 151.214C419.999 152.295 418.656 153.115 417.121 153.575C415.586 154.036 413.924 154.118 412.335 153.811C408.839 153.137 405.978 150.817 404.633 148.092C403.135 145.057 403.821 141.671 405.281 138.726C406.86 135.543 409.203 132.688 411.056 129.621C412.734 126.849 413.802 123.848 414.209 120.761C415.023 114.561 413.337 108.312 409.419 103.003C405.424 97.7751 399.327 93.9078 392.224 92.0953C385.171 90.2039 377.557 90.372 370.635 92.5717C363.879 94.7934 357.355 99.6352 357.434 106.138C357.467 108.916 358.703 111.749 361.252 113.601C364.298 115.815 368.54 116.005 372.37 115.659C376.224 115.311 379.967 114.372 383.837 114.132C387.204 113.924 390.836 114.141 393.842 115.537C395.242 116.188 396.434 117.111 397.317 118.227C397.792 118.824 396.641 119.38 396.169 118.787V118.787Z" fill="#2F2E41"/>
<path d="M391.34 164.053L389.461 162.963L385.964 160.937C385.287 160.546 384.453 160.396 383.644 160.518C382.835 160.64 382.117 161.025 381.648 161.588L370.248 175.282L359.634 188.032L358.687 189.169V206.117H358.772C359.51 206.056 360.197 205.776 360.708 205.327C360.817 205.233 360.917 205.132 361.006 205.023L364.309 201.05L372.472 191.243L380.933 181.084L381.738 180.116L392.111 167.655C392.168 167.589 392.22 167.52 392.267 167.45C392.314 167.382 392.357 167.312 392.395 167.24C392.692 166.69 392.75 166.07 392.557 165.487C392.364 164.905 391.934 164.398 391.34 164.053Z" fill="#FF8563"/>
<path d="M391.373 158.634C391.038 158.45 390.687 158.289 390.322 158.152C388.706 157.534 386.883 157.399 385.161 157.77C383.439 158.141 381.923 158.996 380.867 160.19L370.097 172.379C369.88 172.669 369.735 172.992 369.67 173.33C369.605 173.667 369.621 174.012 369.717 174.344C369.813 174.677 369.987 174.99 370.229 175.265C370.472 175.541 370.777 175.773 371.128 175.949L380.933 181.084L381.056 181.147L381.549 181.404C382.253 181.759 383.096 181.867 383.895 181.704C384.694 181.541 385.384 181.121 385.812 180.535L393.417 167.935L393.545 167.726L393.55 167.722L394.018 166.936C394.872 165.522 395.075 163.895 394.587 162.365C394.1 160.835 392.956 159.507 391.373 158.634Z" fill="#2F2E41"/>
<path d="M325.429 208.87V238.608C325.43 239.293 325.757 239.951 326.338 240.436C326.919 240.921 327.707 241.194 328.528 241.195H335.073C335.895 241.194 336.683 240.921 337.264 240.436C337.845 239.951 338.172 239.294 338.173 238.608V208.87H325.429Z" fill="#FF8563"/>
<path d="M374.19 205.327H359.634V181.171C359.632 180.194 359.167 179.257 358.339 178.566C357.511 177.875 356.389 177.487 355.219 177.486H301.238C300.066 177.486 298.943 177.874 298.114 178.565C297.286 179.256 296.819 180.193 296.818 181.171V205.975C296.819 206.953 297.286 207.89 298.114 208.581C298.943 209.272 300.066 209.66 301.238 209.66H374.19C374.266 209.66 374.337 209.656 374.408 209.652C374.474 209.648 374.54 209.636 374.606 209.629C375.089 209.547 375.524 209.329 375.836 209.011C376.148 208.692 376.319 208.294 376.32 207.883V207.105C376.32 206.633 376.095 206.181 375.696 205.848C375.296 205.515 374.755 205.327 374.19 205.327ZM374.19 208.87H301.238C300.317 208.87 299.435 208.565 298.784 208.022C298.132 207.479 297.766 206.743 297.764 205.975V181.171C297.766 180.403 298.132 179.667 298.784 179.124C299.435 178.581 300.317 178.276 301.238 178.276H355.219C356.138 178.277 357.02 178.582 357.67 179.125C358.32 179.668 358.686 180.403 358.687 181.171V206.117H374.19C374.504 206.117 374.805 206.221 375.026 206.407C375.248 206.592 375.373 206.843 375.373 207.105V207.883C375.373 208.145 375.248 208.396 375.026 208.581C374.805 208.766 374.504 208.87 374.19 208.87Z" fill="#3F3D56"/>
<path d="M328.226 196.611C330.236 196.611 331.865 195.251 331.865 193.573C331.865 191.896 330.236 190.536 328.226 190.536C326.216 190.536 324.587 191.896 324.587 193.573C324.587 195.251 326.216 196.611 328.226 196.611Z" fill="#FF8563"/>
<path d="M57.7316 142.719C71.7191 142.719 83.0582 133.255 83.0582 121.581C83.0582 109.906 71.7191 100.442 57.7316 100.442C43.7441 100.442 32.405 109.906 32.405 121.581C32.405 133.255 43.7441 142.719 57.7316 142.719Z" fill="#FF8563"/>
<path d="M52.7945 201.101H45.8098C44.9943 201.102 44.2124 201.373 43.6357 201.854C43.059 202.335 42.7347 202.988 42.7339 203.668V252.254C42.7347 252.935 43.059 253.587 43.6357 254.069C44.2124 254.55 44.9943 254.821 45.8098 254.821H52.7945C53.6101 254.821 54.392 254.55 54.9687 254.069C55.5454 253.587 55.8697 252.935 55.8705 252.254V203.668C55.8697 202.988 55.5454 202.335 54.9687 201.854C54.392 201.373 53.6101 201.102 52.7945 201.101Z" fill="#2F2E41"/>
<path d="M67.5543 201.101H60.5696C59.7541 201.102 58.9721 201.373 58.3954 201.854C57.8187 202.335 57.4944 202.988 57.4937 203.668V252.254C57.4944 252.935 57.8187 253.587 58.3954 254.069C58.9721 254.55 59.7541 254.821 60.5696 254.821H67.5543C67.9582 254.821 68.3582 254.755 68.7315 254.626C69.1047 254.497 69.4438 254.308 69.7294 254.069C70.015 253.831 70.2416 253.548 70.3962 253.236C70.5507 252.925 70.6303 252.591 70.6303 252.254V203.668C70.6303 203.331 70.5507 202.997 70.3962 202.686C70.2416 202.374 70.015 202.091 69.7294 201.853C69.4438 201.615 69.1046 201.426 68.7314 201.297C68.3582 201.168 67.9582 201.101 67.5543 201.101Z" fill="#2F2E41"/>
<path d="M72.6131 153.803C70.1654 151.163 66.79 149.228 62.9592 148.267C59.1284 147.307 55.0339 147.371 51.2485 148.449C47.463 149.527 44.1761 151.566 41.8475 154.28C39.5189 156.994 38.2652 160.248 38.2618 163.587V206.615C38.2599 206.746 38.2726 206.877 38.2997 207.006C38.412 207.664 38.805 208.267 39.4065 208.703C40.008 209.139 40.7777 209.379 41.5744 209.38H73.3137C74.1917 209.378 75.0332 209.087 75.6541 208.568C76.2749 208.05 76.6245 207.348 76.6263 206.615V163.587C76.6322 160.043 75.2197 156.6 72.6131 153.803Z" fill="#2F2E41"/>
<path d="M79.1194 130.925L79.093 130.135C80.8537 130.094 82.4061 130.002 83.5725 129.291C83.9032 129.078 84.175 128.808 84.3694 128.499C84.5639 128.19 84.6764 127.85 84.6994 127.502C84.7199 127.289 84.6813 127.076 84.5867 126.877C84.4921 126.679 84.344 126.502 84.1538 126.359C83.3795 125.813 82.1337 125.99 81.2255 126.337L80.4424 126.637L81.9442 117.477L82.8818 117.585L81.6045 125.376C82.8384 125.073 83.9817 125.204 84.7648 125.756C85.0655 125.975 85.3014 126.249 85.4541 126.557C85.6068 126.864 85.6722 127.198 85.6451 127.53C85.6175 127.998 85.4677 128.455 85.206 128.869C84.9444 129.284 84.5774 129.645 84.1307 129.929C82.632 130.843 80.6844 130.888 79.1194 130.925Z" fill="#2F2E41"/>
<path d="M76.5268 118.257H71.4294V119.046H76.5268V118.257Z" fill="#2F2E41"/>
<path d="M50.3055 154.412C50.0323 154.163 49.7025 153.961 49.3353 153.82C48.9681 153.678 48.5708 153.599 48.1665 153.586L42.663 153.397L41.1911 153.345C40.3762 153.317 39.5814 153.56 38.9809 154.021C38.3803 154.481 38.023 155.122 37.9873 155.802L37.1167 173.307L35.5787 204.348C35.5473 204.996 35.8102 205.629 36.3147 206.122C36.8193 206.615 37.5283 206.931 38.2997 207.006C38.3755 207.014 38.4465 207.018 38.5222 207.022L42.7339 207.168L45.5023 207.263C45.724 207.271 45.9462 207.259 46.1648 207.227C46.7429 207.141 47.2797 206.919 47.7122 206.587C48.0106 206.359 48.2517 206.084 48.4215 205.778C48.5912 205.471 48.6863 205.139 48.7012 204.802L48.8858 201.101L50.244 173.726L51.1147 156.256C51.1487 155.576 50.8576 154.913 50.3055 154.412Z" fill="#FF8563"/>
<path d="M46.2736 150.58C45.6854 150.477 45.0858 150.425 44.4846 150.426C42.1636 150.429 39.9385 151.199 38.2972 152.569C36.656 153.939 35.7328 155.796 35.73 157.733V171.162C35.7313 171.588 35.8586 172.006 36.1005 172.38C36.3425 172.754 36.6915 173.073 37.1166 173.307C37.4632 173.498 37.853 173.627 38.2618 173.686C38.4412 173.715 38.6233 173.729 38.8059 173.73H50.1633C50.1903 173.73 50.2173 173.729 50.244 173.726C51.0451 173.709 51.8065 173.431 52.366 172.952C52.9255 172.473 53.2389 171.831 53.2393 171.162V157.733C53.2368 156.055 52.5433 154.429 51.2752 153.127C50.007 151.824 48.2412 150.925 46.2736 150.58Z" fill="#2F2E41"/>
<path d="M106.932 188.825C106.189 188.505 105.607 187.977 105.286 187.333C104.966 186.689 104.928 185.971 105.181 185.306L107.873 178.153L107.088 177.608L86.422 163.338L72.6132 153.803L70.9333 152.642C70.3051 152.208 69.496 152 68.6841 152.064C67.8721 152.127 67.1236 152.458 66.6033 152.982L62.1502 157.477C61.892 157.736 61.6977 158.035 61.5784 158.357C61.459 158.68 61.4171 159.018 61.4549 159.354C61.4927 159.69 61.6095 160.016 61.7987 160.314C61.9878 160.612 62.2456 160.876 62.5571 161.091L76.6263 170.807L78.2258 171.909L107.41 192.06C107.949 192.435 108.626 192.643 109.328 192.652C110.03 192.661 110.714 192.469 111.266 192.108C111.419 192.008 111.558 191.896 111.683 191.772C111.703 191.756 111.722 191.739 111.739 191.721L112.303 191.152L106.932 188.825Z" fill="#FF8563"/>
<path d="M85.4281 160.597L72.9778 152.093C72.0882 151.485 71.0638 151.029 69.9632 150.752C68.8626 150.474 67.7073 150.381 66.5632 150.476C65.4191 150.571 64.3087 150.853 63.2954 151.307C62.282 151.76 61.3856 152.375 60.6573 153.118C59.9289 153.86 59.3829 154.715 59.0504 155.634C58.718 156.553 58.6055 157.517 58.7196 158.472C58.9498 160.4 60.0885 162.173 61.8852 163.401L74.3357 171.905C74.8842 172.28 75.571 172.485 76.2799 172.486C76.9888 172.486 77.6762 172.283 78.2258 171.909C78.3895 171.803 78.5373 171.681 78.6657 171.545L85.8588 164.211C86.1134 163.954 86.3048 163.657 86.4219 163.338C86.599 162.85 86.5992 162.33 86.4223 161.842C86.2454 161.354 85.8995 160.921 85.4281 160.597Z" fill="#2F2E41"/>
<path d="M51.3821 125.16C50.0633 123.321 49.0311 121.295 49.521 119.116C49.9585 117.17 51.636 115.655 54.0482 115.456C55.5009 115.336 56.9466 115.66 58.3654 115.871C59.5284 116.041 60.7103 116.105 61.89 116.061C64.2636 115.971 66.5903 115.479 68.7286 114.614C70.899 113.766 72.8267 112.541 74.3822 111.019C75.9377 109.498 77.0849 107.716 77.7466 105.794C79.186 101.42 78.1173 96.4532 74.6988 92.893L75.8853 92.6316L74.3405 96.8674C74.3104 96.9542 74.2571 97.0343 74.1846 97.1014C74.1121 97.1686 74.0223 97.2213 73.922 97.2553C73.8216 97.2894 73.7133 97.3041 73.6052 97.2982C73.4971 97.2923 73.392 97.2661 73.2978 97.2214C70.4981 95.745 67.3682 94.7586 64.098 94.3222C60.8278 93.8859 57.4855 94.0085 54.2738 94.6828C52.4591 95.0634 50.7062 95.6261 49.0537 96.3586C48.2473 96.7164 47.5293 95.694 48.3371 95.3355C51.4411 93.9841 54.8412 93.1722 58.3318 92.949C61.8225 92.7258 65.3311 93.0959 68.6454 94.037C70.533 94.574 72.3357 95.2997 74.0143 96.1983L72.9715 96.5524L74.5163 92.3166C74.5507 92.2175 74.6153 92.1276 74.7037 92.0556C74.7921 91.9835 74.9014 91.9319 75.0208 91.9055C75.1403 91.8792 75.2659 91.8792 75.3854 91.9054C75.5049 91.9316 75.6142 91.9832 75.7027 92.0551C77.2926 93.7384 78.4578 95.6729 79.1281 97.7421C79.7983 99.8113 79.9597 101.972 79.6026 104.095C79.2575 106.187 78.3865 108.195 77.0467 109.986C75.7069 111.778 73.9285 113.312 71.8282 114.49C69.73 115.672 67.3717 116.495 64.8899 116.912C62.4081 117.328 59.852 117.33 57.3694 116.916C55.9801 116.693 54.4045 116.374 53.0413 116.86C52.5469 117.059 52.1111 117.346 51.7648 117.702C51.4185 118.057 51.1702 118.472 51.0377 118.916C50.2652 121.101 51.5796 123.176 52.9223 124.992L51.3821 125.16Z" fill="#2F2E41"/>
<path d="M143.777 168.923L120.366 157.615C119.783 157.333 119.132 157.165 118.46 157.122C117.789 157.079 117.114 157.162 116.487 157.366C115.859 157.569 115.294 157.888 114.834 158.298C114.373 158.708 114.029 159.2 113.826 159.736L107.088 177.608L104.277 185.069C103.958 185.911 104.006 186.82 104.412 187.635C104.818 188.45 105.556 189.119 106.496 189.525L111.683 191.772L128.605 199.099C129.245 199.377 129.956 199.522 130.678 199.521C131.211 199.52 131.739 199.441 132.24 199.288L132.273 199.276C132.864 199.088 133.401 198.798 133.85 198.425C134.298 198.052 134.647 197.605 134.876 197.112L145.722 173.512C146.108 172.68 146.125 171.759 145.768 170.917C145.411 170.075 144.705 169.368 143.777 168.923ZM144.837 173.232L133.991 196.832C133.81 197.221 133.533 197.574 133.179 197.867C132.824 198.161 132.399 198.39 131.932 198.538L131.908 198.546C131.444 198.689 130.95 198.75 130.456 198.724C129.962 198.699 129.48 198.589 129.041 198.4L112.303 191.152L106.932 188.825C106.189 188.505 105.606 187.977 105.286 187.333C104.966 186.689 104.928 185.971 105.181 185.306L107.873 178.153L114.726 159.973C114.887 159.55 115.159 159.163 115.522 158.84C115.886 158.517 116.332 158.265 116.827 158.105C117.322 157.944 117.854 157.878 118.384 157.912C118.914 157.945 119.428 158.077 119.889 158.298L143.299 169.606C144.032 169.957 144.591 170.516 144.873 171.181C145.155 171.846 145.142 172.574 144.837 173.232Z" fill="#3F3D56"/>
<path d="M135.922 176.484C135.685 176.484 135.452 176.434 135.244 176.339L119.627 169.23C119.298 169.079 119.054 168.825 118.949 168.524C118.843 168.223 118.885 167.899 119.065 167.624C119.245 167.349 119.548 167.144 119.908 167.055C120.269 166.966 120.657 167 120.987 167.149L136.603 174.259C136.88 174.385 137.099 174.585 137.225 174.826C137.351 175.068 137.377 175.337 137.299 175.592C137.221 175.848 137.043 176.074 136.794 176.235C136.545 176.397 136.238 176.484 135.922 176.484H135.922Z" fill="#FF8563"/>
<path d="M133.083 181.619C132.846 181.619 132.613 181.569 132.404 181.474L116.788 174.364C116.459 174.213 116.215 173.96 116.109 173.659C116.004 173.358 116.046 173.034 116.226 172.759C116.405 172.483 116.709 172.279 117.069 172.19C117.429 172.101 117.817 172.135 118.148 172.284L133.764 179.393C134.041 179.52 134.26 179.719 134.386 179.961C134.512 180.202 134.538 180.472 134.46 180.727C134.382 180.982 134.204 181.208 133.955 181.37C133.705 181.531 133.399 181.619 133.083 181.619H133.083Z" fill="#FF8563"/>
<path d="M130.717 187.148C130.48 187.148 130.246 187.099 130.038 187.004L114.422 179.894C114.093 179.743 113.849 179.489 113.743 179.188C113.638 178.887 113.68 178.564 113.859 178.288C114.039 178.013 114.343 177.808 114.703 177.719C115.063 177.63 115.451 177.664 115.782 177.813L131.398 184.923C131.675 185.049 131.894 185.249 132.02 185.49C132.146 185.732 132.172 186.001 132.094 186.257C132.016 186.512 131.838 186.738 131.588 186.9C131.339 187.061 131.032 187.149 130.717 187.148H130.717Z" fill="#FF8563"/>
<path d="M295.86 75.259H230.21C229.266 75.2581 228.362 74.9449 227.694 74.3879C227.027 73.831 226.652 73.0759 226.651 72.2883V2.97075C226.652 2.18313 227.027 1.42803 227.694 0.8711C228.362 0.31417 229.266 0.00089589 230.21 0H295.86C296.803 0.000901106 297.708 0.314177 298.375 0.871106C299.043 1.42803 299.418 2.18313 299.419 2.97075V72.2883C299.418 73.0759 299.043 73.831 298.375 74.3879C297.708 74.9448 296.803 75.2581 295.86 75.259ZM230.21 0.660168C229.476 0.660855 228.772 0.904512 228.253 1.33768C227.734 1.77085 227.442 2.35816 227.442 2.97075V72.2883C227.442 72.9009 227.734 73.4882 228.253 73.9213C228.772 74.3545 229.476 74.5982 230.21 74.5989H295.86C296.594 74.5982 297.297 74.3545 297.816 73.9213C298.335 73.4882 298.627 72.9009 298.628 72.2883V2.97075C298.627 2.35816 298.335 1.77085 297.816 1.33768C297.297 0.904512 296.594 0.660856 295.86 0.660168H230.21Z" fill="#3F3D56"/>
<path d="M257.574 33.3192H243.123C242.651 33.3187 242.199 33.1621 241.865 32.8836C241.531 32.6052 241.344 32.2276 241.343 31.8338V17.6007C241.344 17.2069 241.531 16.8294 241.865 16.5509C242.199 16.2724 242.651 16.1158 243.123 16.1154H257.574C258.046 16.1158 258.498 16.2724 258.832 16.5509C259.165 16.8294 259.353 17.2069 259.353 17.6007V31.8338C259.353 32.2276 259.165 32.6052 258.832 32.8836C258.498 33.1621 258.046 33.3187 257.574 33.3192Z" fill="#FF8563"/>
<path d="M285.653 39.9209H271.202C270.73 39.9204 270.278 39.7638 269.944 39.4853C269.611 39.2069 269.423 38.8293 269.422 38.4355V24.2024C269.423 23.8086 269.611 23.431 269.944 23.1526C270.278 22.8741 270.73 22.7175 271.202 22.717H285.653C286.125 22.7175 286.577 22.8741 286.911 23.1526C287.244 23.431 287.432 23.8086 287.433 24.2024V38.4355C287.432 38.8293 287.244 39.2069 286.911 39.4853C286.577 39.7638 286.125 39.9204 285.653 39.9209Z" fill="#CCCCCC"/>
<path d="M263.11 60.0559H248.66C248.188 60.0555 247.735 59.8989 247.402 59.6204C247.068 59.3419 246.88 58.9644 246.88 58.5706V44.3375C246.88 43.9437 247.068 43.5661 247.402 43.2876C247.735 43.0092 248.188 42.8525 248.66 42.8521H263.11C263.582 42.8525 264.035 43.0092 264.368 43.2876C264.702 43.5661 264.89 43.9437 264.89 44.3375V58.5706C264.89 58.9644 264.702 59.3419 264.368 59.6204C264.035 59.8989 263.582 60.0555 263.11 60.0559Z" fill="#FF6584"/>
<path d="M210.225 56.5231C209.951 55.9822 209.494 55.5199 208.91 55.1935C208.325 54.8671 207.639 54.6908 206.936 54.6865H141.285C140.342 54.687 139.437 55 138.769 55.5569C138.102 56.1139 137.727 56.8691 137.727 57.6567V126.974C137.727 127.762 138.102 128.517 138.769 129.074C139.437 129.631 140.342 129.944 141.285 129.944H206.936C207.879 129.943 208.784 129.63 209.451 129.073C210.118 128.516 210.493 127.762 210.494 126.974V57.6567C210.496 57.2676 210.404 56.8822 210.225 56.5231ZM209.704 126.974C209.703 127.587 209.411 128.174 208.892 128.607C208.373 129.04 207.67 129.284 206.936 129.285H141.285C140.551 129.285 139.847 129.041 139.328 128.608C138.809 128.175 138.517 127.587 138.517 126.974V57.6567C138.518 57.0441 138.81 56.4569 139.329 56.0237C139.848 55.5906 140.551 55.3469 141.285 55.3461H206.936C207.489 55.3479 208.028 55.4871 208.486 55.746C208.944 56.0048 209.299 56.3717 209.505 56.7996C209.546 56.8849 209.58 56.9719 209.609 57.0603C209.672 57.2548 209.704 57.4553 209.704 57.6567V126.974Z" fill="#3F3D56"/>
<path d="M196.522 71.0526H176.748C176.329 71.0526 175.926 70.9134 175.63 70.6658C175.333 70.4182 175.166 70.0824 175.166 69.7322C175.166 69.382 175.333 69.0462 175.63 68.7986C175.926 68.551 176.329 68.4119 176.748 68.4119H196.522C196.942 68.4119 197.344 68.551 197.641 68.7986C197.937 69.0462 198.104 69.382 198.104 69.7322C198.104 70.0824 197.937 70.4182 197.641 70.6658C197.344 70.9134 196.942 71.0526 196.522 71.0526Z" fill="#3F3D56"/>
<path d="M196.522 77.9843H176.748C176.329 77.9843 175.926 77.8452 175.63 77.5976C175.333 77.35 175.166 77.0141 175.166 76.664C175.166 76.3138 175.333 75.978 175.63 75.7304C175.926 75.4827 176.329 75.3436 176.748 75.3436H196.522C196.942 75.3436 197.344 75.4827 197.641 75.7304C197.937 75.978 198.104 76.3138 198.104 76.664C198.104 77.0141 197.937 77.35 197.641 77.5976C197.344 77.8452 196.942 77.9843 196.522 77.9843Z" fill="#3F3D56"/>
<path d="M166.602 81.9313H152.151C151.679 81.9308 151.227 81.7742 150.893 81.4957C150.56 81.2173 150.372 80.8397 150.372 80.4459V66.2128C150.372 65.819 150.56 65.4414 150.893 65.163C151.227 64.8845 151.679 64.7279 152.151 64.7274H166.602C167.074 64.7279 167.526 64.8845 167.86 65.163C168.194 65.4414 168.381 65.819 168.382 66.2128V80.4459C168.381 80.8397 168.194 81.2173 167.86 81.4957C167.526 81.7742 167.074 81.9308 166.602 81.9313Z" fill="#FF8563"/>
<path d="M196.385 92.1779H151.696C151.488 92.1782 151.282 92.1443 151.09 92.0781C150.897 92.0118 150.723 91.9146 150.576 91.792C150.428 91.6693 150.312 91.5237 150.232 91.3634C150.152 91.203 150.111 91.0311 150.111 90.8576C150.111 90.684 150.152 90.5121 150.232 90.3518C150.312 90.1914 150.428 90.0458 150.576 89.9231C150.723 89.8005 150.897 89.7033 151.09 89.6371C151.282 89.5709 151.488 89.5369 151.696 89.5372H196.385C196.804 89.5378 197.206 89.6772 197.502 89.9247C197.798 90.1723 197.964 90.5078 197.964 90.8576C197.964 91.2073 197.798 91.5428 197.502 91.7904C197.206 92.0379 196.804 92.1773 196.385 92.1779Z" fill="#CCCCCC"/>
<path d="M196.385 99.1096H151.696C151.488 99.1099 151.282 99.076 151.09 99.0098C150.897 98.9436 150.723 98.8464 150.576 98.7237C150.428 98.6011 150.312 98.4555 150.232 98.2951C150.152 98.1348 150.111 97.9629 150.111 97.7893C150.111 97.6157 150.152 97.4439 150.232 97.2835C150.312 97.1232 150.428 96.9775 150.576 96.8549C150.723 96.7323 150.897 96.635 151.09 96.5688C151.282 96.5026 151.488 96.4687 151.696 96.469H196.385C196.805 96.469 197.207 96.6081 197.504 96.8557C197.8 97.1033 197.967 97.4391 197.967 97.7893C197.967 98.1395 197.8 98.4753 197.504 98.7229C197.207 98.9705 196.805 99.1096 196.385 99.1096Z" fill="#CCCCCC"/>
<path d="M196.385 106.041H151.696C151.488 106.042 151.282 106.008 151.09 105.942C150.897 105.875 150.723 105.778 150.576 105.656C150.428 105.533 150.312 105.387 150.232 105.227C150.152 105.067 150.111 104.895 150.111 104.721C150.111 104.548 150.152 104.376 150.232 104.215C150.312 104.055 150.428 103.909 150.576 103.787C150.723 103.664 150.897 103.567 151.09 103.501C151.282 103.434 151.488 103.4 151.696 103.401H196.385C196.805 103.401 197.207 103.54 197.504 103.787C197.8 104.035 197.967 104.371 197.967 104.721C197.967 105.071 197.8 105.407 197.504 105.655C197.207 105.902 196.805 106.041 196.385 106.041Z" fill="#CCCCCC"/>
<path d="M196.385 112.973H151.696C151.488 112.973 151.282 112.94 151.09 112.873C150.897 112.807 150.723 112.71 150.576 112.587C150.428 112.465 150.312 112.319 150.232 112.159C150.152 111.998 150.111 111.826 150.111 111.653C150.111 111.479 150.152 111.307 150.232 111.147C150.312 110.987 150.428 110.841 150.576 110.718C150.723 110.596 150.897 110.499 151.09 110.432C151.282 110.366 151.488 110.332 151.696 110.332H196.385C196.805 110.332 197.207 110.472 197.504 110.719C197.8 110.967 197.967 111.303 197.967 111.653C197.967 112.003 197.8 112.339 197.504 112.586C197.207 112.834 196.805 112.973 196.385 112.973Z" fill="#CCCCCC"/>
<path d="M196.385 119.905H151.696C151.488 119.905 151.282 119.871 151.09 119.805C150.897 119.739 150.723 119.642 150.576 119.519C150.428 119.396 150.312 119.251 150.232 119.09C150.152 118.93 150.111 118.758 150.111 118.585C150.111 118.411 150.152 118.239 150.232 118.079C150.312 117.918 150.428 117.773 150.576 117.65C150.723 117.528 150.897 117.43 151.09 117.364C151.282 117.298 151.488 117.264 151.696 117.264H196.385C196.804 117.265 197.206 117.404 197.502 117.652C197.798 117.899 197.964 118.235 197.964 118.585C197.964 118.934 197.798 119.27 197.502 119.517C197.206 119.765 196.804 119.904 196.385 119.905Z" fill="#CCCCCC"/>
<path d="M259.986 82.8293L222.561 112.569L223.107 113.047L260.532 83.3075L259.986 82.8293Z" fill="#E6E6E6"/>
<path d="M222.212 113.301L226.962 113.254L226.953 112.593L223.053 112.632L223.292 109.383L222.501 109.344L222.212 113.301Z" fill="#E6E6E6"/>
<path d="M260.88 82.5739L260.591 86.5316L259.801 86.4921L260.039 83.2426L256.139 83.2817L256.131 82.6213L260.88 82.5739Z" fill="#E6E6E6"/>
<path d="M241.547 101.569C243.949 101.569 245.897 99.9433 245.897 97.938C245.897 95.9327 243.949 94.307 241.547 94.307C239.144 94.307 237.196 95.9327 237.196 97.938C237.196 99.9433 239.144 101.569 241.547 101.569Z" fill="#E6E6E6"/>
<path d="M209.825 12.5243L172.399 42.2635L172.945 42.7417L210.37 13.0025L209.825 12.5243Z" fill="#E6E6E6"/>
<path d="M172.05 42.9958L176.8 42.9492L176.792 42.2884L172.891 42.3275L173.13 39.0785L172.34 39.0386L172.05 42.9958Z" fill="#E6E6E6"/>
<path d="M210.718 12.269L210.429 16.2266L209.639 16.1871L209.877 12.9377L205.977 12.9768L205.969 12.3164L210.718 12.269Z" fill="#E6E6E6"/>
<path d="M191.385 31.2639C193.787 31.2639 195.735 29.6383 195.735 27.633C195.735 25.6277 193.787 24.0021 191.385 24.0021C188.982 24.0021 187.034 25.6277 187.034 27.633C187.034 29.6383 188.982 31.2639 191.385 31.2639Z" fill="#E6E6E6"/>
<path d="M359.619 205.746H358.673V209.301H359.619V205.746Z" fill="#3F3D56"/>
</g>
<defs>
<clipPath id="clip0_4_212">
<rect width="100%" height="100%" fill="white"/>
</clipPath>
</defs>
</svg>
