<svg width="100%" height="100%" viewBox="0 0 37 30" fill="none" xmlns="http://www.w3.org/2000/svg">
<path fill-rule="evenodd" clip-rule="evenodd" d="M5.83846 18.2631V29.4846C5.83688 29.6205 5.77823 29.7505 5.67515 29.8464C5.57206 29.9423 5.43282 29.9965 5.28744 29.9972H0.551025C0.405405 29.9972 0.265704 29.9433 0.162452 29.8472C0.0592011 29.7512 0.000795742 29.6208 0 29.4846L0 18.2631H5.83846ZM0 14.5986L12.523 4.34889C15.2962 6.88386 17.9851 9.96244 20.7282 12.4974L30.734 3.0983L27.5121 0.0788658L37 0V8.95127L33.9076 6.05859C31.6885 8.16261 26.4402 12.796 24.221 14.8747C21.4117 17.4998 20.0718 17.5476 17.2655 14.9225L12.523 9.98779L6.9646 14.5986H0ZM34.4376 10.8976V29.4874C34.436 29.6229 34.3778 29.7524 34.2753 29.8482C34.1729 29.9441 34.0344 29.9985 33.8896 30H29.1501C29.0053 29.9978 28.8671 29.9426 28.7653 29.8463C28.6634 29.7499 28.6059 29.6201 28.6051 29.4846V16.1365C29.5085 15.3169 30.5623 14.3648 31.6373 13.3959L33.8805 11.3764C34.0592 11.2077 34.2471 11.0479 34.4436 10.8976H34.4376ZM24.9045 19.2489V29.4846C24.903 29.6205 24.8443 29.7505 24.7412 29.8464C24.6381 29.9423 24.4989 29.9965 24.3535 29.9972H19.6171C19.4717 29.9965 19.3325 29.9423 19.2294 29.8464C19.1263 29.7505 19.0677 29.6205 19.0661 29.4846V20.3418C19.6307 20.4699 20.2106 20.5296 20.7914 20.5192C22.2691 20.4991 23.7046 20.0558 24.9045 19.2489ZM15.3715 18.4039V29.4705C15.3699 29.6065 15.3113 29.7364 15.2082 29.8323C15.1051 29.9282 14.9659 29.9824 14.8205 29.9831H10.0811C9.93596 29.9824 9.79703 29.9281 9.69442 29.8321C9.59182 29.7362 9.53383 29.6062 9.53304 29.4705V17.4631C9.62939 17.3955 9.72274 17.3251 9.81307 17.2519L12.1798 15.2803L14.0888 17.2519L14.2363 17.3955C14.6217 17.758 15.0001 18.0884 15.3715 18.387V18.4039Z" fill="#04B500"/>
</svg>
