<svg width="100%" height="100%" viewBox="0 0 34 40" fill="none" xmlns="http://www.w3.org/2000/svg">
<path d="M30 0H5C3.67392 0 2.40215 0.526784 1.46447 1.46447C0.526784 2.40215 0 3.67392 0 5V35C0 36.3261 0.526784 37.5978 1.46447 38.5355C2.40215 39.4732 3.67392 40 5 40H33.3333V3.33333C33.3333 2.44928 32.9822 1.60143 32.357 0.976311C31.7319 0.351189 30.8841 0 30 0V0ZM30 30H10V3.33333H30V30ZM5 3.33333H6.66667V30H5.02833C4.44955 30.005 3.87604 30.1104 3.33333 30.3117V5C3.33333 4.55797 3.50893 4.13405 3.82149 3.82149C4.13405 3.50893 4.55797 3.33333 5 3.33333ZM5 36.6667C4.56027 36.6667 4.13836 36.4929 3.82618 36.1832C3.514 35.8735 3.33685 35.453 3.33333 35.0133H3.35833C3.35657 34.7933 3.39838 34.5752 3.48135 34.3714C3.56432 34.1677 3.68681 33.9824 3.84175 33.8262C3.99669 33.67 4.18102 33.546 4.3841 33.4615C4.58718 33.3769 4.805 33.3333 5.025 33.3333H30V36.6667H5Z" fill="#FEFEFE"/>
</svg>
