<svg viewBox="0 0 67 55" fill="none" xmlns="http://www.w3.org/2000/svg">
<path fill-rule="evenodd" clip-rule="evenodd" d="M0 51.9444C0 51.1341 0.32086 50.3569 0.891994 49.7838C1.46313 49.2108 2.23775 48.8889 3.04545 48.8889H63.9545C64.7623 48.8889 65.5369 49.2108 66.108 49.7838C66.6791 50.3569 67 51.1341 67 51.9444C67 52.7548 66.6791 53.532 66.108 54.1051C65.5369 54.6781 64.7623 55 63.9545 55H3.04545C2.23775 55 1.46313 54.6781 0.891994 54.1051C0.32086 53.532 0 52.7548 0 51.9444ZM0 27.5C0 26.6896 0.32086 25.9124 0.891994 25.3394C1.46313 24.7664 2.23775 24.4444 3.04545 24.4444H63.9545C64.7623 24.4444 65.5369 24.7664 66.108 25.3394C66.6791 25.9124 67 26.6896 67 27.5C67 28.3104 66.6791 29.0876 66.108 29.6606C65.5369 30.2336 64.7623 30.5556 63.9545 30.5556H3.04545C2.23775 30.5556 1.46313 30.2336 0.891994 29.6606C0.32086 29.0876 0 28.3104 0 27.5ZM0 3.05556C0 2.24517 0.32086 1.46798 0.891994 0.894952C1.46313 0.321924 2.23775 0 3.04545 0H63.9545C64.7623 0 65.5369 0.321924 66.108 0.894952C66.6791 1.46798 67 2.24517 67 3.05556C67 3.86594 66.6791 4.64313 66.108 5.21616C65.5369 5.78919 64.7623 6.11111 63.9545 6.11111H3.04545C2.23775 6.11111 1.46313 5.78919 0.891994 5.21616C0.32086 4.64313 0 3.86594 0 3.05556Z" fill="#FEFEFE"/>
</svg>
