<svg width="100%" height="100%" viewBox="0 0 17 21" fill="none" xmlns="http://www.w3.org/2000/svg">
<path d="M6.67857 1.3125H10.3214C10.4825 1.3125 10.6369 1.38164 10.7507 1.50471C10.8646 1.62778 10.9286 1.7947 10.9286 1.96875V3.28125H6.07143V1.96875C6.07143 1.7947 6.1354 1.62778 6.24926 1.50471C6.36312 1.38164 6.51755 1.3125 6.67857 1.3125ZM12.1429 3.28125V1.96875C12.1429 1.44661 11.951 0.945846 11.6094 0.576634C11.2678 0.207421 10.8045 0 10.3214 0L6.67857 0C6.1955 0 5.73221 0.207421 5.39063 0.576634C5.04904 0.945846 4.85714 1.44661 4.85714 1.96875V3.28125H1.82871C1.82467 3.28121 1.82062 3.28121 1.81657 3.28125H0.607143C0.446119 3.28125 0.291689 3.35039 0.177828 3.47346C0.0639666 3.59653 0 3.76345 0 3.9375C0 4.11155 0.0639666 4.27847 0.177828 4.40154C0.291689 4.52461 0.446119 4.59375 0.607143 4.59375H1.26043L2.29621 18.585C2.34506 19.2428 2.62134 19.8566 3.07005 20.3042C3.51875 20.7517 4.10695 21.0001 4.7175 21H12.2825C12.8931 21.0001 13.4812 20.7517 13.93 20.3042C14.3787 19.8566 14.6549 19.2428 14.7038 18.585L15.7396 4.59375H16.3929C16.5539 4.59375 16.7083 4.52461 16.8222 4.40154C16.936 4.27847 17 4.11155 17 3.9375C17 3.76345 16.936 3.59653 16.8222 3.47346C16.7083 3.35039 16.5539 3.28125 16.3929 3.28125H15.1846C15.1806 3.28121 15.1765 3.28121 15.1725 3.28125H12.1429ZM14.5204 4.59375L13.4931 18.48C13.4687 18.8089 13.3306 19.1158 13.1062 19.3396C12.8819 19.5633 12.5878 19.6876 12.2825 19.6875H4.7175C4.41222 19.6876 4.11813 19.5633 3.89377 19.3396C3.66942 19.1158 3.53128 18.8089 3.50686 18.48L2.47957 4.59375H14.5204ZM5.42907 5.90625C5.58976 5.89621 5.74756 5.95555 5.86779 6.07123C5.98802 6.1869 6.06083 6.34944 6.07021 6.52312L6.67736 17.6794C6.68374 17.851 6.62759 18.0185 6.52098 18.1459C6.41437 18.2733 6.26578 18.3505 6.10714 18.3608C5.94849 18.3711 5.79243 18.3138 5.67247 18.2011C5.5525 18.0884 5.47819 17.9294 5.4655 17.7581L4.85714 6.60188C4.85221 6.51566 4.86308 6.42924 4.88912 6.34758C4.91515 6.26591 4.95585 6.19061 5.00887 6.12598C5.06189 6.06135 5.1262 6.00867 5.1981 5.97097C5.27 5.93326 5.34808 5.91127 5.42786 5.90625H5.42907ZM11.5709 5.90625C11.6507 5.91127 11.7288 5.93326 11.8007 5.97097C11.8726 6.00867 11.9369 6.06135 11.9899 6.12598C12.0429 6.19061 12.0836 6.26591 12.1097 6.34758C12.1357 6.42924 12.1466 6.51566 12.1416 6.60188L11.5345 17.7581C11.5313 17.8453 11.512 17.931 11.4777 18.01C11.4435 18.0891 11.395 18.1599 11.3351 18.2185C11.2752 18.277 11.2052 18.3221 11.129 18.351C11.0528 18.3799 10.972 18.3921 10.8914 18.3869C10.8108 18.3816 10.732 18.3591 10.6595 18.3205C10.5871 18.2819 10.5225 18.2281 10.4696 18.1622C10.4166 18.0964 10.3763 18.0197 10.3511 17.9368C10.3259 17.8539 10.3162 17.7664 10.3226 17.6794L10.9298 6.52312C10.9392 6.34944 11.012 6.1869 11.1322 6.07123C11.2524 5.95555 11.4102 5.89621 11.5709 5.90625ZM8.5 5.90625C8.66102 5.90625 8.81545 5.97539 8.92932 6.09846C9.04318 6.22153 9.10714 6.38845 9.10714 6.5625V17.7188C9.10714 17.8928 9.04318 18.0597 8.92932 18.1828C8.81545 18.3059 8.66102 18.375 8.5 18.375C8.33898 18.375 8.18455 18.3059 8.07069 18.1828C7.95682 18.0597 7.89286 17.8928 7.89286 17.7188V6.5625C7.89286 6.38845 7.95682 6.22153 8.07069 6.09846C8.18455 5.97539 8.33898 5.90625 8.5 5.90625Z" fill="#FEFEFE"/>
</svg>
