<svg
  width="100%"
  height="100%"
  viewBox="0 0 25 55"
  fill="none"
  xmlns="http://www.w3.org/2000/svg"
>

  <path
    d="M18.4388 13.4496C18.5849 13.014 18.6625 12.5584 18.6686 12.0991C18.6686 9.18718 14.8254 3.56709 13.6479 1.91328L12.2843 3.09944e-05L10.9184 1.91322C9.73378 3.57172 5.89798 9.18691 5.89685 12.1C5.90346 12.5593 5.98099 13.0148 6.12671 13.4505C4.48713 13.0595 2.96366 12.8226 2.20548 12.7136L-0.000360624 12.4008L0.311251 14.6078C0.642555 17.2008 1.27883 19.7457 2.20686 22.1896L-0.00016138 21.878L0.311448 24.085C0.642753 26.6781 1.27903 29.223 2.20706 31.6669L3.65416e-05 31.3553L0.311648 33.5623C0.559278 35.3097 1.51423 41.1619 3.39906 43.0467C4.86333 44.511 8.52749 45.614 10.6089 46.1459L10.6091 54.8934L13.9593 54.8935L13.9592 46.146C16.0406 45.6141 19.7059 44.5101 21.1689 43.0471C23.0537 41.1623 24.0084 35.3102 24.2559 33.5628L24.5674 31.3558L22.3604 31.6673C23.2887 29.2236 23.9249 26.6787 24.2557 24.0855L24.5672 21.8785L22.3602 22.19C23.2885 19.7463 23.9247 17.2014 24.2555 14.6083L24.5671 12.4013L22.36 12.7128C21.6042 12.8218 20.0831 13.0563 18.4388 13.4496ZM9.24707 12.1C9.87826 9.86136 10.9066 7.75435 12.2832 5.87948C13.6604 7.75345 14.6886 9.8603 15.3184 12.099C14.7216 13.7672 13.6709 15.2355 12.2846 16.3388C10.9027 15.231 9.85188 13.7647 9.24707 12.1ZM4.02637 16.4275C5.88363 16.6772 7.67886 17.2676 9.32182 18.1691C9.99582 18.9085 10.4425 19.8265 10.6084 20.8132L10.6097 23.7216C8.89152 23.3429 7.25289 22.6665 5.76793 21.7229C4.86651 20.08 4.2761 18.2848 4.02637 16.4275ZM4.02657 25.9047C5.88383 26.1545 7.67906 26.7449 9.32202 27.6463C9.99553 28.3858 10.4425 29.3032 10.6098 30.2893L10.6099 33.1988C8.89172 32.8202 7.25309 32.1438 5.76813 31.2002C4.86671 29.5572 4.2763 27.762 4.02657 25.9047ZM5.76833 40.6775C4.86691 39.0345 4.2765 37.2393 4.02677 35.382C5.88403 35.6317 7.67926 36.2221 9.32222 37.1236C9.99644 37.862 10.4432 38.7793 10.6088 39.7654L10.6101 42.6761C8.89192 42.2974 7.25329 41.621 5.76833 40.6775ZM18.7995 40.6777C17.3152 41.6212 15.6769 42.2972 13.9591 42.675L13.9602 39.7666C14.1252 38.7803 14.5715 37.8625 15.2455 37.1237C16.8889 36.2222 18.6844 35.6315 20.5421 35.3812C20.2918 37.2388 19.7011 39.0343 18.7995 40.6777ZM18.7993 31.2005C17.315 32.1439 15.6767 32.8199 13.9589 33.1977L13.9588 30.2882C14.1251 29.3023 14.5717 28.3852 15.2453 27.6464C16.8887 26.7449 18.6842 26.1542 20.5419 25.9039C20.2916 27.7615 19.7009 29.5571 18.7993 31.2005ZM18.7992 21.7232C17.3144 22.6659 15.6762 23.3419 13.9587 23.7204L13.9574 20.8097C14.1243 19.8242 14.5713 18.9075 15.2451 18.1692C16.8885 17.2677 18.684 16.6769 20.5417 16.4267C20.2914 18.2843 19.7007 20.0798 18.7992 21.7232Z"
    fill="#FEFEFE"
  />
</svg>